# Blender v2.80 (sub 39) OBJ File: 'piece.blend'
# www.blender.org
mtllib piece.mtl
o Cube.001_Cube.005
v 1.000000 1.000000 -0.400000
v 1.025000 0.900000 -0.040000
v 1.025000 0.855761 -0.057696
v 0.900000 -0.025000 -0.360000
v 0.100000 -0.025000 -0.040000
v 0.000000 0.100000 -0.360000
v 0.000000 0.900000 -0.040000
v -0.025000 0.855761 -0.057696
v -0.025000 0.100000 -0.360000
v 0.000000 0.855761 -0.057696
v 0.144239 -0.025000 -0.342304
v 1.000000 0.900000 -0.360000
v 1.000000 0.900000 -0.040000
v 1.025000 0.144239 -0.342304
v 0.900000 1.000000 -0.360000
v 0.900000 1.000000 -0.040000
v 0.855761 1.025000 -0.057696
v 0.100000 1.025000 -0.360000
v 0.144239 1.025000 -0.342304
v 0.000000 0.900000 -0.360000
v 0.000000 0.100000 -0.040000
v -0.025000 0.144239 -0.342304
v 0.000000 0.144239 -0.342304
v 0.100000 1.025000 -0.040000
v 1.000000 0.000000 -0.000000
v 0.100000 -0.025000 -0.360000
v 0.144239 -0.025000 -0.057696
v 0.900000 -0.000000 -0.040000
v 1.025000 0.900000 -0.360000
v 1.025000 0.144239 -0.057696
v 1.000000 0.000000 -0.400000
v 1.000000 0.100000 -0.360000
v -0.025000 0.900000 -0.040000
v -0.025000 0.100000 -0.040000
v -0.025000 0.144239 -0.057696
v 0.900000 -0.000000 -0.360000
v 0.100000 -0.000000 -0.360000
v 0.100000 -0.000000 -0.040000
v -0.000000 -0.000000 -0.400000
v 0.855761 -0.025000 -0.057696
v 0.855761 -0.025000 -0.342304
v 0.900000 -0.025000 -0.040000
v 1.000000 0.100000 -0.040000
v 1.025000 0.855761 -0.342304
v 1.000000 0.855761 -0.057696
v 1.000000 0.855761 -0.342304
v 0.100000 1.000000 -0.360000
v 0.100000 1.000000 -0.040000
v -0.000000 1.000000 -0.400000
v 0.855761 1.025000 -0.342304
v -0.025000 0.855761 -0.342304
v -0.025000 0.900000 -0.360000
v 0.144239 1.025000 -0.057696
v 0.900000 1.025000 -0.040000
v 0.900000 1.025000 -0.360000
v 1.025000 0.100000 -0.360000
v 1.025000 0.100000 -0.040000
v 1.000000 0.775761 -0.089696
v 0.000000 0.775761 -0.310304
v 0.855761 0.000000 -0.057696
v 0.855761 0.000000 -0.342304
v 0.855761 1.000000 -0.057696
v 0.855761 1.000000 -0.342304
v 0.144239 0.000000 -0.057696
v 0.144239 1.000000 -0.057696
v 0.144239 0.000000 -0.342304
v 0.144239 1.000000 -0.342304
v 1.000000 0.144239 -0.057696
v 1.000000 0.144239 -0.342304
v 0.000000 0.855761 -0.342304
v 0.000000 0.144239 -0.057696
v 0.775761 0.000000 -0.089696
v 0.775761 0.000000 -0.310304
v 0.775761 1.000000 -0.089696
v 0.775761 1.000000 -0.310304
v 0.224239 1.000000 -0.089696
v 0.224239 1.000000 -0.310304
v 1.000000 0.224239 -0.310304
v 0.224239 0.000000 -0.089696
v 1.000000 0.775761 -0.310304
v 0.000000 0.775761 -0.089696
v 0.000000 0.224239 -0.089696
v 0.000000 0.224239 -0.310304
v 0.224239 0.000000 -0.310304
v 1.000000 0.224239 -0.089696
v 0.800000 0.224239 -0.089696
v 0.800000 0.224239 -0.310304
v 0.800000 0.775761 -0.089696
v 0.800000 0.775761 -0.310304
v 0.775761 0.800000 -0.089696
v 0.775761 0.800000 -0.310304
v 0.224239 0.800000 -0.089696
v 0.224239 0.800000 -0.310304
v 0.200000 0.775761 -0.089696
v 0.200000 0.775761 -0.310304
v 0.200000 0.224239 -0.089696
v 0.200000 0.224239 -0.310304
v 0.775761 0.200000 -0.089696
v 0.775761 0.200000 -0.310304
v 0.224239 0.200000 -0.089696
v 0.224239 0.200000 -0.310304
v -0.000000 1.000000 0.000000
v 0.000000 0.000000 -0.000000
v 1.000000 1.000000 0.000000
vt 0.400000 0.725000
vt 0.400000 0.525000
vt 0.400000 0.525000
vt 0.400000 0.725000
vt 0.600000 0.525000
vt 0.375000 0.500000
vt 0.625000 0.500000
vt 0.600000 0.725000
vt 0.625000 0.750000
vt 0.375000 0.750000
vt 0.625000 0.500000
vt 0.600000 0.725000
vt 0.600000 0.525000
vt 0.588940 0.536060
vt 0.411060 0.536060
vt 0.588940 0.713940
vt 0.411060 0.713940
vt 0.411060 0.536060
vt 0.411060 0.713940
vt 0.588940 0.713940
vt 0.588940 0.536060
vt 0.400000 0.725000
vt 0.400000 0.525000
vt 0.400000 0.525000
vt 0.400000 0.725000
vt 0.600000 0.525000
vt 0.375000 0.500000
vt 0.600000 0.725000
vt 0.625000 0.750000
vt 0.375000 0.750000
vt 0.600000 0.725000
vt 0.600000 0.525000
vt 0.588940 0.536060
vt 0.411060 0.536060
vt 0.411060 0.713940
vt 0.588940 0.713940
vt 0.411060 0.536060
vt 0.411060 0.713940
vt 0.588940 0.713940
vt 0.588940 0.536060
vt 0.400000 0.725000
vt 0.400000 0.725000
vt 0.400000 0.525000
vt 0.400000 0.525000
vt 0.600000 0.525000
vt 0.625000 0.500000
vt 0.375000 0.500000
vt 0.600000 0.725000
vt 0.600000 0.725000
vt 0.600000 0.525000
vt 0.588940 0.536060
vt 0.411060 0.536060
vt 0.411060 0.713940
vt 0.588940 0.713940
vt 0.411060 0.713940
vt 0.411060 0.536060
vt 0.588940 0.713940
vt 0.588940 0.536060
vt 0.400000 0.725000
vt 0.400000 0.725000
vt 0.400000 0.525000
vt 0.400000 0.525000
vt 0.600000 0.525000
vt 0.375000 0.750000
vt 0.625000 0.750000
vt 0.600000 0.725000
vt 0.600000 0.725000
vt 0.600000 0.525000
vt 0.588940 0.536060
vt 0.411060 0.536060
vt 0.411060 0.713940
vt 0.588940 0.713940
vt 0.411060 0.713940
vt 0.411060 0.536060
vt 0.588940 0.713940
vt 0.588940 0.536060
vt 0.000000 0.000000
vt 0.568940 0.556060
vt 0.431060 0.556060
vt 0.431060 0.556060
vt 0.568940 0.556060
vt 0.568940 0.693940
vt 0.568940 0.693940
vt 0.431060 0.693940
vt 0.431060 0.693940
vt 0.431060 0.693940
vt 0.568940 0.693940
vt 0.568940 0.556060
vt 0.431060 0.556060
vt 0.431060 0.556060
vt 0.568940 0.556060
vt 0.568940 0.693940
vt 0.431060 0.693940
vt 0.431060 0.693940
vt 0.568940 0.693940
vt 0.568940 0.693940
vt 0.431060 0.693940
vt 0.431060 0.693940
vt 0.431060 0.556060
vt 0.431060 0.556060
vt 0.431060 0.693940
vt 0.568940 0.556060
vt 0.568940 0.693940
vt 0.431060 0.556060
vt 0.568940 0.556060
vt 0.568940 0.693940
vt 0.568940 0.556060
vt 0.431060 0.556060
vt 0.568940 0.556060
vt 0.000000 0.000000
vt 0.000000 0.000000
vt 0.000000 0.000000
vt 0.000000 0.000000
vn 0.0000 0.0000 -1.0000
vn 1.0000 0.0000 0.0000
vn 0.0000 -1.0000 0.0000
vn 0.0000 -0.0000 1.0000
vn 0.0000 1.0000 0.0000
vn -1.0000 0.0000 0.0000
usemtl None
s off
f 32/1/1 12/2/1 29/3/1 56/4/1
f 13/5/2 12/2/2 1/6/2 104/7/2
f 32/1/2 43/8/2 25/9/2 31/10/2
f 13/5/2 104/7/2 25/11/2 43/8/2
f 12/2/2 32/1/2 31/10/2 1/6/2
f 43/8/3 32/1/3 56/4/3 57/12/3
f 13/5/4 43/8/4 57/12/4 2/13/4
f 12/2/5 13/5/5 2/13/5 29/3/5
f 3/14/2 44/15/2 29/3/2 2/13/2
f 30/16/2 3/14/2 2/13/2 57/12/2
f 44/15/2 14/17/2 56/4/2 29/3/2
f 14/17/4 44/15/4 46/18/4 69/19/4
f 30/16/5 14/17/5 69/19/5 68/20/5
f 3/14/1 30/16/1 68/20/1 45/21/1
f 44/15/3 3/14/3 45/21/3 46/18/3
f 37/22/1 36/23/1 4/24/1 26/25/1
f 28/26/3 36/23/3 31/27/3 25/11/3
f 37/22/3 38/28/3 103/29/3 39/30/3
f 38/28/3 28/26/3 25/11/3 103/29/3
f 36/23/3 37/22/3 39/30/3 31/27/3
f 38/28/6 37/22/6 26/25/6 5/31/6
f 28/26/4 38/28/4 5/31/4 42/32/4
f 36/23/2 28/26/2 42/32/2 4/24/2
f 40/33/3 41/34/3 4/24/3 42/32/3
f 11/35/3 27/36/3 5/31/3 26/25/3
f 27/36/3 40/33/3 42/32/3 5/31/3
f 41/34/3 11/35/3 26/25/3 4/24/3
f 11/35/4 41/34/4 61/37/4 66/38/4
f 27/36/2 11/35/2 66/38/2 64/39/2
f 40/33/1 27/36/1 64/39/1 60/40/1
f 41/34/6 40/33/6 60/40/6 61/37/6
f 6/41/1 9/42/1 52/43/1 20/44/1
f 7/45/6 102/46/6 49/47/6 20/44/6
f 6/41/6 39/30/6 103/29/6 21/48/6
f 21/48/6 103/29/6 102/46/6 7/45/6
f 20/44/6 49/47/6 39/30/6 6/41/6
f 21/48/3 34/49/3 9/42/3 6/41/3
f 7/45/4 33/50/4 34/49/4 21/48/4
f 20/44/5 52/43/5 33/50/5 7/45/5
f 8/51/6 33/50/6 52/43/6 51/52/6
f 22/53/6 9/42/6 34/49/6 35/54/6
f 35/54/6 34/49/6 33/50/6 8/51/6
f 51/52/6 52/43/6 9/42/6 22/53/6
f 22/53/4 23/55/4 70/56/4 51/52/4
f 35/54/5 71/57/5 23/55/5 22/53/5
f 8/51/1 10/58/1 71/57/1 35/54/1
f 51/52/3 70/56/3 10/58/3 8/51/3
f 47/59/1 18/60/1 55/61/1 15/62/1
f 16/63/5 104/7/5 1/6/5 15/62/5
f 47/59/5 49/64/5 102/65/5 48/66/5
f 48/66/5 102/65/5 104/7/5 16/63/5
f 15/62/5 1/6/5 49/64/5 47/59/5
f 48/66/6 24/67/6 18/60/6 47/59/6
f 16/63/4 54/68/4 24/67/4 48/66/4
f 15/62/2 55/61/2 54/68/2 16/63/2
f 17/69/5 54/68/5 55/61/5 50/70/5
f 19/71/5 18/60/5 24/67/5 53/72/5
f 53/72/5 24/67/5 54/68/5 17/69/5
f 50/70/5 55/61/5 18/60/5 19/71/5
f 19/71/4 67/73/4 63/74/4 50/70/4
f 53/72/2 65/75/2 67/73/2 19/71/2
f 17/69/1 62/76/1 65/75/1 53/72/1
f 50/70/6 63/74/6 62/76/6 17/69/6
f 31/10/1 39/77/1 49/47/1 1/6/1
f 14/17/2 30/16/2 57/12/2 56/4/2
f 72/78/3 73/79/3 61/37/3 60/40/3
f 75/80/5 74/81/5 62/76/5 63/74/5
f 79/82/3 72/78/3 60/40/3 64/39/3
f 74/81/5 76/83/5 65/75/5 62/76/5
f 73/79/3 84/84/3 66/38/3 61/37/3
f 77/85/5 75/80/5 63/74/5 67/73/5
f 84/84/3 79/82/3 64/39/3 66/38/3
f 76/83/5 77/85/5 67/73/5 65/75/5
f 78/86/2 85/87/2 68/20/2 69/19/2
f 58/88/2 80/89/2 46/18/2 45/21/2
f 85/87/2 58/88/2 45/21/2 68/20/2
f 80/89/2 78/86/2 69/19/2 46/18/2
f 59/90/6 81/91/6 10/58/6 70/56/6
f 82/92/6 83/93/6 23/55/6 71/57/6
f 81/91/6 82/92/6 71/57/6 10/58/6
f 83/93/6 59/90/6 70/56/6 23/55/6
f 79/82/2 84/84/2 101/94/2 100/95/2
f 77/85/2 76/83/2 92/96/2 93/97/2
f 59/90/4 83/93/4 97/98/4 95/99/4
f 78/86/4 80/89/4 89/100/4 87/101/4
f 89/100/2 88/102/2 86/103/2 87/101/2
f 80/89/3 58/88/3 88/102/3 89/100/3
f 58/88/1 85/87/1 86/103/1 88/102/1
f 85/87/5 78/86/5 87/101/5 86/103/5
f 91/104/5 93/97/5 92/96/5 90/105/5
f 75/80/4 77/85/4 93/97/4 91/104/4
f 76/83/1 74/81/1 90/105/1 92/96/1
f 74/81/6 75/80/6 91/104/6 90/105/6
f 95/99/6 97/98/6 96/106/6 94/107/6
f 83/93/5 82/92/5 96/106/5 97/98/5
f 82/92/1 81/91/1 94/107/1 96/106/1
f 81/91/3 59/90/3 95/99/3 94/107/3
f 99/108/3 98/109/3 100/95/3 101/94/3
f 84/84/4 73/79/4 99/108/4 101/94/4
f 72/78/1 79/82/1 100/95/1 98/109/1
f 73/79/6 72/78/6 98/109/6 99/108/6
f 102/110/4 103/111/4 25/112/4 104/113/4
